RBDS001runT45_grf
version=1
nRows=24
nColumns=19
inDegrees=no
endheader
time	ground_force_r_vx	ground_force_r_vy	ground_force_r_vz	ground_force_r_px	ground_force_r_py	ground_force_r_pz	ground_torque_r_x	ground_torque_r_y	ground_torque_r_z	ground_force_l_vx	ground_force_l_vy	ground_force_l_vz	ground_force_l_px	ground_force_l_py	ground_force_l_pz	ground_torque_l_x	ground_torque_l_y	ground_torque_l_z
      0.00000000	    209.83892139	   1054.11064574	     22.23498671	      2.13473129	      0.00000000	      1.02951900	      4.39806040	     21.90906474	      0.46480386	      0.00000000	      0.00000000	      0.00000000	      0.00000000	      0.00000000	      0.00000000	      0.00000000	      0.00000000	      0.00000000
      0.00333333	    208.28817577	    981.00500917	     24.49039358	      2.11931146	      0.00000000	      1.03304072	      3.97589985	     19.33975767	      0.43633551	      0.00000000	      0.00000000	      0.00000000	      0.00000000	      0.00000000	      0.00000000	      0.00000000	      0.00000000	      0.00000000
      0.00666667	    205.93105119	    907.19026464	     26.51917205	      2.12000687	      0.00000000	      1.02553647	      3.56703202	     16.85418706	      0.40641257	      0.00000000	      0.00000000	      0.00000000	      0.00000000	      0.00000000	      0.00000000	      0.00000000	      0.00000000	      0.00000000
      0.01000000	    202.57653230	    833.22355412	     28.24174888	      2.06705287	      0.00000000	      1.03595774	      3.18067246	     14.51259146	      0.37499349	      0.00000000	      0.00000000	      0.00000000	      0.00000000	      0.00000000	      0.00000000	      0.00000000	      0.00000000	      0.00000000
      0.01333333	    198.07442244	    759.66336332	     29.59278140	      2.09560980	      0.00000000	      1.02306151	      2.82183018	     12.35384834	      0.34170522	      0.00000000	      0.00000000	      0.00000000	      0.00000000	      0.00000000	      0.00000000	      0.00000000	      0.00000000	      0.00000000
      0.01666667	    192.32501827	    687.07242049	     30.51897536	      2.06974104	      0.00000000	      1.02415128	      2.49243751	     10.40073519	      0.30602000	      0.00000000	      0.00000000	      0.00000000	      0.00000000	      0.00000000	      0.00000000	      0.00000000	      0.00000000	      0.00000000
      0.02000000	    185.28867620	    616.02089588	     30.97713241	      2.02658847	      0.00000000	      1.03207166	      2.19193349	      8.66274264	      0.26729318	      0.00000000	      0.00000000	      0.00000000	      0.00000000	      0.00000000	      0.00000000	      0.00000000	      0.00000000	      0.00000000
      0.02333333	    176.98870660	    547.08619352	     30.93808132	      2.07819905	      0.00000000	      1.01710003	      1.91782449	      7.13823664	      0.22483015	      0.00000000	      0.00000000	      0.00000000	      0.00000000	      0.00000000	      0.00000000	      0.00000000	      0.00000000	      0.00000000
      0.02666667	    167.50899230	    480.83991860	     30.39017810	      1.98337054	      0.00000000	      1.03712057	      1.66647533	      5.81777805	      0.17805048	      0.00000000	      0.00000000	      0.00000000	      0.00000000	      0.00000000	      0.00000000	      0.00000000	      0.00000000	      0.00000000
      0.03000000	    156.98999339	    417.82812973	     29.34119026	      2.05450958	      0.00000000	      1.02853912	      1.43379240	      4.68704356	      0.12670452	      0.00000000	      0.00000000	      0.00000000	      0.00000000	      0.00000000	      0.00000000	      0.00000000	      0.00000000	      0.00000000
      0.03333333	    145.61936627	    358.54841562	     27.82201209	      2.02489153	      0.00000000	      1.03179960	      1.21577916	      3.72901291	      0.07106603	      0.00000000	      0.00000000	      0.00000000	      0.00000000	      0.00000000	      0.00000000	      0.00000000	      0.00000000	      0.00000000
      0.03666667	    133.61669938	    303.42783527	     25.88846834	      1.89589773	      0.00000000	      1.05839264	      1.00907550	      2.92559488	      0.01209241	      0.00000000	      0.00000000	      0.00000000	      0.00000000	      0.00000000	      0.00000000	      0.00000000	      0.00000000	      0.00000000
      0.04000000	    121.21208838	    252.80529616	     23.61902170	      2.07906929	      0.00000000	      1.01049371	      0.81137882	      2.25924587	     -0.04841026	      0.00000000	      0.00000000	      0.00000000	      0.00000000	      0.00000000	      0.00000000	      0.00000000	      0.00000000	      0.00000000
      0.04333333	    108.63132518	    206.91865234	     21.10936654	      1.78699845	      0.00000000	      1.05834619	      0.62068570	      1.71289775	     -0.10811287	      0.00000000	      0.00000000	      0.00000000	      0.00000000	      0.00000000	      0.00000000	      0.00000000	      0.00000000	      0.00000000
      0.04666667	     96.09251641	    165.89814484	     18.46175959	      2.03715145	      0.00000000	      1.03954614	      0.43493712	      1.26966669	     -0.16481858	      0.00000000	      0.00000000	      0.00000000	      0.00000000	      0.00000000	      0.00000000	      0.00000000	      0.00000000	      0.00000000
      0.05000000	     83.80283921	    129.76554028	     15.77240194	      1.79193643	      0.00000000	      1.01373590	      0.25348294	      0.91480075	     -0.21647216	      0.00000000	      0.00000000	      0.00000000	      0.00000000	      0.00000000	      0.00000000	      0.00000000	      0.00000000	      0.00000000
      0.05333333	      0.00000000	      0.00000000	      0.00000000	      0.00000000	      0.00000000	      0.00000000	      0.00000000	      0.00000000	      0.00000000	      0.00000000	      0.00000000	      0.00000000	      0.00000000	      0.00000000	      0.00000000	      0.00000000	      0.00000000	      0.00000000
      0.05666667	      0.00000000	      0.00000000	      0.00000000	      0.00000000	      0.00000000	      0.00000000	      0.00000000	      0.00000000	      0.00000000	      0.00000000	      0.00000000	      0.00000000	      0.00000000	      0.00000000	      0.00000000	      0.00000000	      0.00000000	      0.00000000
      0.06000000	      0.00000000	      0.00000000	      0.00000000	      0.00000000	      0.00000000	      0.00000000	      0.00000000	      0.00000000	      0.00000000	      0.00000000	      0.00000000	      0.00000000	      0.00000000	      0.00000000	      0.00000000	      0.00000000	      0.00000000	      0.00000000
      0.06333333	      0.00000000	      0.00000000	      0.00000000	      0.00000000	      0.00000000	      0.00000000	      0.00000000	      0.00000000	      0.00000000	      0.00000000	      0.00000000	      0.00000000	      0.00000000	      0.00000000	      0.00000000	      0.00000000	      0.00000000	      0.00000000
      0.06666667	      0.00000000	      0.00000000	      0.00000000	      0.00000000	      0.00000000	      0.00000000	      0.00000000	      0.00000000	      0.00000000	      0.00000000	      0.00000000	      0.00000000	      0.00000000	      0.00000000	      0.00000000	      0.00000000	      0.00000000	      0.00000000
      0.07000000	      0.00000000	      0.00000000	      0.00000000	      0.00000000	      0.00000000	      0.00000000	      0.00000000	      0.00000000	      0.00000000	      0.00000000	      0.00000000	      0.00000000	      0.00000000	      0.00000000	      0.00000000	      0.00000000	      0.00000000	      0.00000000
      0.07333333	      0.00000000	      0.00000000	      0.00000000	      0.00000000	      0.00000000	      0.00000000	      0.00000000	      0.00000000	      0.00000000	      0.00000000	      0.00000000	      0.00000000	      0.00000000	      0.00000000	      0.00000000	      0.00000000	      0.00000000	      0.00000000
      0.07666667	      0.00000000	      0.00000000	      0.00000000	      0.00000000	      0.00000000	      0.00000000	      0.00000000	      0.00000000	      0.00000000	      0.00000000	      0.00000000	      0.00000000	      0.00000000	      0.00000000	      0.00000000	      0.00000000	      0.00000000	      0.00000000
